<svg width="2053" height="977" xmlns="http://www.w3.org/2000/svg" xmlns:xlink="http://www.w3.org/1999/xlink" xml:space="preserve" overflow="hidden"><g transform="translate(-1989 -1145)"><g><g><g><g><text fill="#000000" fill-opacity="1" font-family="Arial,Arial_MSFontService,sans-serif" font-style="normal" font-variant="normal" font-weight="400" font-stretch="normal" font-size="12" text-anchor="start" direction="ltr" writing-mode="lr-tb" unicode-bidi="normal" text-decoration="none" transform="matrix(5.38947 0 0 5.39444 3545.17 1579)">GPIO 13 (I)</text><path d="M1347.37 431.158 1492.88 431.158" stroke="#000000" stroke-width="10.7789" stroke-linecap="square" stroke-linejoin="miter" stroke-miterlimit="4" stroke-opacity="1" fill="none" fill-rule="nonzero" transform="matrix(1 0 0 1.00092 1993 1147)"/><path d="M1525.22 431.158C1525.22 440.087 1517.98 447.326 1509.05 447.326 1500.12 447.326 1492.88 440.087 1492.88 431.158 1492.88 422.228 1500.12 414.99 1509.05 414.99 1517.98 414.99 1525.22 422.228 1525.22 431.158Z" stroke="#000000" stroke-width="10.7789" stroke-linecap="butt" stroke-linejoin="miter" stroke-miterlimit="4" stroke-opacity="1" fill="none" fill-rule="nonzero" transform="matrix(1 0 0 1.00092 1993 1147)"/><text fill="#000000" fill-opacity="1" font-family="Arial,Arial_MSFontService,sans-serif" font-style="normal" font-variant="normal" font-weight="400" font-stretch="normal" font-size="12" text-anchor="start" direction="ltr" writing-mode="lr-tb" unicode-bidi="normal" text-decoration="none" transform="matrix(5.38947 0 0 5.39444 3545.17 1363)">GPIO 26 (I)</text><path d="M1347.37 215.579 1492.88 215.579" stroke="#000000" stroke-width="10.7789" stroke-linecap="square" stroke-linejoin="miter" stroke-miterlimit="4" stroke-opacity="1" fill="none" fill-rule="nonzero" transform="matrix(1 0 0 1.00092 1993 1147)"/><path d="M1525.22 215.579C1525.22 224.509 1517.98 231.747 1509.05 231.747 1500.12 231.747 1492.88 224.509 1492.88 215.579 1492.88 206.649 1500.12 199.411 1509.05 199.411 1517.98 199.411 1525.22 206.649 1525.22 215.579Z" stroke="#000000" stroke-width="10.7789" stroke-linecap="butt" stroke-linejoin="miter" stroke-miterlimit="4" stroke-opacity="1" fill="none" fill-rule="nonzero" transform="matrix(1 0 0 1.00092 1993 1147)"/><path d="M1077.89 215.579 1185.68 215.579" stroke="#000000" stroke-width="10.7789" stroke-linecap="square" stroke-linejoin="miter" stroke-miterlimit="4" stroke-opacity="1" fill="none" fill-rule="nonzero" transform="matrix(1 0 0 1.00092 1993 1147)"/><path d="M1077.89 431.158 1185.68 431.158" stroke="#000000" stroke-width="10.7789" stroke-linecap="square" stroke-linejoin="miter" stroke-miterlimit="4" stroke-opacity="1" fill="none" fill-rule="nonzero" transform="matrix(1 0 0 1.00092 1993 1147)"/><path d="M1077.89 215.579 1077.89 431.158" stroke="#000000" stroke-width="10.7789" stroke-linecap="square" stroke-linejoin="miter" stroke-miterlimit="4" stroke-opacity="1" fill="none" fill-rule="nonzero" transform="matrix(1 0 0 1.00092 1993 1147)"/><path d="M1024 538.947 1024 754.526" stroke="#000000" stroke-width="10.7789" stroke-linecap="square" stroke-linejoin="miter" stroke-miterlimit="4" stroke-opacity="1" fill="none" fill-rule="nonzero" transform="matrix(1 0 0 1.00092 1993 1147)"/><path d="M1185.68 431.158 1191.07 431.158" stroke="#000000" stroke-width="10.7789" stroke-linecap="square" stroke-linejoin="miter" stroke-miterlimit="4" stroke-opacity="1" fill="none" fill-rule="nonzero" transform="matrix(1 0 0 1.00092 1993 1147)"/><path d="M1341.98 431.158 1347.37 431.158" stroke="#000000" stroke-width="10.7789" stroke-linecap="square" stroke-linejoin="miter" stroke-miterlimit="4" stroke-opacity="1" fill="none" fill-rule="nonzero" transform="matrix(1 0 0 1.00092 1993 1147)"/><path d="M1223.41 431.158C1223.41 440.087 1216.17 447.326 1207.24 447.326 1198.31 447.326 1191.07 440.087 1191.07 431.158 1191.07 422.228 1198.31 414.99 1207.24 414.99 1216.17 414.99 1223.41 422.228 1223.41 431.158Z" stroke="#000000" stroke-width="10.7789" stroke-linecap="butt" stroke-linejoin="miter" stroke-miterlimit="4" stroke-opacity="1" fill="none" fill-rule="nonzero" transform="matrix(1 0 0 1.00092 1993 1147)"/><path d="M1341.98 431.158C1341.98 440.087 1334.74 447.326 1325.81 447.326 1316.88 447.326 1309.64 440.087 1309.64 431.158 1309.64 422.228 1316.88 414.99 1325.81 414.99 1334.74 414.99 1341.98 422.228 1341.98 431.158Z" stroke="#000000" stroke-width="10.7789" stroke-linecap="butt" stroke-linejoin="miter" stroke-miterlimit="4" stroke-opacity="1" fill="none" fill-rule="nonzero" transform="matrix(1 0 0 1.00092 1993 1147)"/><path d="M1201.85 388.042 1331.2 388.042" stroke="#000000" stroke-width="10.7789" stroke-linecap="square" stroke-linejoin="miter" stroke-miterlimit="4" stroke-opacity="1" fill="none" fill-rule="nonzero" transform="matrix(1 0 0 1.00092 1993 1147)"/><path d="M1234.19 355.705 1298.86 355.705" stroke="#000000" stroke-width="10.7789" stroke-linecap="square" stroke-linejoin="miter" stroke-miterlimit="4" stroke-opacity="1" fill="none" fill-rule="nonzero" transform="matrix(1 0 0 1.00092 1993 1147)"/><path d="M1266.53 355.705 1266.53 388.042" stroke="#000000" stroke-width="10.7789" stroke-linecap="square" stroke-linejoin="miter" stroke-miterlimit="4" stroke-opacity="1" fill="none" fill-rule="nonzero" transform="matrix(1 0 0 1.00092 1993 1147)"/><path d="M1185.68 215.579 1191.07 215.579" stroke="#000000" stroke-width="10.7789" stroke-linecap="square" stroke-linejoin="miter" stroke-miterlimit="4" stroke-opacity="1" fill="none" fill-rule="nonzero" transform="matrix(1 0 0 1.00092 1993 1147)"/><path d="M1341.98 215.579 1347.37 215.579" stroke="#000000" stroke-width="10.7789" stroke-linecap="square" stroke-linejoin="miter" stroke-miterlimit="4" stroke-opacity="1" fill="none" fill-rule="nonzero" transform="matrix(1 0 0 1.00092 1993 1147)"/><path d="M1223.41 215.579C1223.41 224.509 1216.17 231.747 1207.24 231.747 1198.31 231.747 1191.07 224.509 1191.07 215.579 1191.07 206.649 1198.31 199.411 1207.24 199.411 1216.17 199.411 1223.41 206.649 1223.41 215.579Z" stroke="#000000" stroke-width="10.7789" stroke-linecap="butt" stroke-linejoin="miter" stroke-miterlimit="4" stroke-opacity="1" fill="none" fill-rule="nonzero" transform="matrix(1 0 0 1.00092 1993 1147)"/><path d="M1341.98 215.579C1341.98 224.509 1334.74 231.747 1325.81 231.747 1316.88 231.747 1309.64 224.509 1309.64 215.579 1309.64 206.649 1316.88 199.411 1325.81 199.411 1334.74 199.411 1341.98 206.649 1341.98 215.579Z" stroke="#000000" stroke-width="10.7789" stroke-linecap="butt" stroke-linejoin="miter" stroke-miterlimit="4" stroke-opacity="1" fill="none" fill-rule="nonzero" transform="matrix(1 0 0 1.00092 1993 1147)"/><path d="M1201.85 172.463 1331.2 172.463" stroke="#000000" stroke-width="10.7789" stroke-linecap="square" stroke-linejoin="miter" stroke-miterlimit="4" stroke-opacity="1" fill="none" fill-rule="nonzero" transform="matrix(1 0 0 1.00092 1993 1147)"/><path d="M1234.19 140.126 1298.86 140.126" stroke="#000000" stroke-width="10.7789" stroke-linecap="square" stroke-linejoin="miter" stroke-miterlimit="4" stroke-opacity="1" fill="none" fill-rule="nonzero" transform="matrix(1 0 0 1.00092 1993 1147)"/><path d="M1266.53 140.126 1266.53 172.463" stroke="#000000" stroke-width="10.7789" stroke-linecap="square" stroke-linejoin="miter" stroke-miterlimit="4" stroke-opacity="1" fill="none" fill-rule="nonzero" transform="matrix(1 0 0 1.00092 1993 1147)"/><text fill="#000000" fill-opacity="1" font-family="Arial,Arial_MSFontService,sans-serif" font-style="normal" font-variant="normal" font-weight="400" font-stretch="normal" font-size="12" text-anchor="start" direction="ltr" writing-mode="lr-tb" unicode-bidi="normal" text-decoration="none" transform="matrix(5.38947 0 0 5.39444 2289.42 1471)">3.3V Out</text><path d="M609.011 323.368 1077.89 323.368" stroke="#000000" stroke-width="10.7789" stroke-linecap="square" stroke-linejoin="miter" stroke-miterlimit="4" stroke-opacity="1" fill="none" fill-rule="nonzero" transform="matrix(1 0 0 1.00092 1993 1147)"/><path d="M609.011 323.368C609.011 332.298 601.772 339.537 592.842 339.537 583.913 339.537 576.674 332.298 576.674 323.368 576.674 314.439 583.913 307.2 592.842 307.2 601.772 307.2 609.011 314.439 609.011 323.368Z" stroke="#000000" stroke-width="10.7789" stroke-linecap="butt" stroke-linejoin="miter" stroke-miterlimit="4" stroke-opacity="1" fill="none" fill-rule="nonzero" transform="matrix(1 0 0 1.00092 1993 1147)"/><path d="M646.737 754.526 1024 754.526" stroke="#000000" stroke-width="10.7789" stroke-linecap="square" stroke-linejoin="miter" stroke-miterlimit="4" stroke-opacity="1" fill="none" fill-rule="nonzero" transform="matrix(1 0 0 1.00092 1993 1147)"/><path d="M873.095 711.411 873.095 797.642M873.095 754.526 792.253 797.642 792.253 711.411 873.095 754.526" stroke="#000000" stroke-width="10.7789" stroke-linecap="square" stroke-linejoin="miter" stroke-miterlimit="4" stroke-opacity="1" fill="none" fill-rule="nonzero" transform="matrix(1 0 0 1.00092 1993 1147)"/><path d="M851.537 695.242 894.653 652.126M900.042 646.737 878.484 657.516 889.263 668.295 900.042 646.737 878.484 657.516" stroke="#000000" stroke-width="10.7789" stroke-linecap="square" stroke-linejoin="miter" stroke-miterlimit="4" stroke-opacity="1" fill="none" fill-rule="nonzero" transform="matrix(1 0 0 1.00092 1993 1147)"/><path d="M883.874 732.968 926.99 689.853M932.379 684.463 910.821 695.242 921.6 706.021 932.379 684.463 910.821 695.242" stroke="#000000" stroke-width="10.7789" stroke-linecap="square" stroke-linejoin="miter" stroke-miterlimit="4" stroke-opacity="1" fill="none" fill-rule="nonzero" transform="matrix(1 0 0 1.00092 1993 1147)"/><path d="M646.737 538.947 1024 538.947" stroke="#000000" stroke-width="10.7789" stroke-linecap="square" stroke-linejoin="miter" stroke-miterlimit="4" stroke-opacity="1" fill="none" fill-rule="nonzero" transform="matrix(1 0 0 1.00092 1993 1147)"/><path d="M873.095 495.832 873.095 582.063M873.095 538.947 792.253 582.063 792.253 495.832 873.095 538.947" stroke="#000000" stroke-width="10.7789" stroke-linecap="square" stroke-linejoin="miter" stroke-miterlimit="4" stroke-opacity="1" fill="none" fill-rule="nonzero" transform="matrix(1 0 0 1.00092 1993 1147)"/><path d="M851.537 479.663 894.653 436.547M900.042 431.158 878.484 441.937 889.263 452.716 900.042 431.158 878.484 441.937" stroke="#000000" stroke-width="10.7789" stroke-linecap="square" stroke-linejoin="miter" stroke-miterlimit="4" stroke-opacity="1" fill="none" fill-rule="nonzero" transform="matrix(1 0 0 1.00092 1993 1147)"/><path d="M883.874 517.39 926.99 474.274M932.379 468.884 910.821 479.663 921.6 490.442 932.379 468.884 910.821 479.663" stroke="#000000" stroke-width="10.7789" stroke-linecap="square" stroke-linejoin="miter" stroke-miterlimit="4" stroke-opacity="1" fill="none" fill-rule="nonzero" transform="matrix(1 0 0 1.00092 1993 1147)"/><text fill="#000000" fill-opacity="1" font-family="Arial,Arial_MSFontService,sans-serif" font-style="normal" font-variant="normal" font-weight="400" font-stretch="normal" font-size="12" text-anchor="start" direction="ltr" writing-mode="lr-tb" unicode-bidi="normal" text-decoration="none" transform="matrix(5.38947 0 0 5.39444 2213.97 1902)">GPIO 3 (O)</text><path d="M609.011 754.526 646.737 754.526" stroke="#000000" stroke-width="10.7789" stroke-linecap="square" stroke-linejoin="miter" stroke-miterlimit="4" stroke-opacity="1" fill="none" fill-rule="nonzero" transform="matrix(1 0 0 1.00092 1993 1147)"/><path d="M609.011 754.526C609.011 763.456 601.772 770.695 592.842 770.695 583.913 770.695 576.674 763.456 576.674 754.526 576.674 745.597 583.913 738.358 592.842 738.358 601.772 738.358 609.011 745.597 609.011 754.526Z" stroke="#000000" stroke-width="10.7789" stroke-linecap="butt" stroke-linejoin="miter" stroke-miterlimit="4" stroke-opacity="1" fill="none" fill-rule="nonzero" transform="matrix(1 0 0 1.00092 1993 1147)"/><text fill="#000000" fill-opacity="1" font-family="Arial,Arial_MSFontService,sans-serif" font-style="normal" font-variant="normal" font-weight="400" font-stretch="normal" font-size="12" text-anchor="start" direction="ltr" writing-mode="lr-tb" unicode-bidi="normal" text-decoration="none" transform="matrix(5.38947 0 0 5.39444 2213.97 1686)">GPIO 2 (O)</text><path d="M609.011 538.947 646.737 538.947" stroke="#000000" stroke-width="10.7789" stroke-linecap="square" stroke-linejoin="miter" stroke-miterlimit="4" stroke-opacity="1" fill="none" fill-rule="nonzero" transform="matrix(1 0 0 1.00092 1993 1147)"/><path d="M609.011 538.947C609.011 547.877 601.772 555.116 592.842 555.116 583.913 555.116 576.674 547.877 576.674 538.947 576.674 530.018 583.913 522.779 592.842 522.779 601.772 522.779 609.011 530.018 609.011 538.947Z" stroke="#000000" stroke-width="10.7789" stroke-linecap="butt" stroke-linejoin="miter" stroke-miterlimit="4" stroke-opacity="1" fill="none" fill-rule="nonzero" transform="matrix(1 0 0 1.00092 1993 1147)"/><text fill="#000000" fill-opacity="1" font-family="Arial,Arial_MSFontService,sans-serif" font-style="normal" font-variant="normal" font-weight="400" font-stretch="normal" font-size="12" text-anchor="start" direction="ltr" writing-mode="lr-tb" unicode-bidi="normal" text-decoration="none" transform="matrix(5.38947 0 0 5.39444 3545.17 1794)">Ground</text><path d="M1455.16 646.737 1492.88 646.737" stroke="#000000" stroke-width="10.7789" stroke-linecap="square" stroke-linejoin="miter" stroke-miterlimit="4" stroke-opacity="1" fill="none" fill-rule="nonzero" transform="matrix(1 0 0 1.00092 1993 1147)"/><path d="M1525.22 646.737C1525.22 655.666 1517.98 662.905 1509.05 662.905 1500.12 662.905 1492.88 655.666 1492.88 646.737 1492.88 637.807 1500.12 630.568 1509.05 630.568 1517.98 630.568 1525.22 637.807 1525.22 646.737Z" stroke="#000000" stroke-width="10.7789" stroke-linecap="butt" stroke-linejoin="miter" stroke-miterlimit="4" stroke-opacity="1" fill="none" fill-rule="nonzero" transform="matrix(1 0 0 1.00092 1993 1147)"/><path d="M1024 646.737 1131.79 646.737" stroke="#000000" stroke-width="10.7789" stroke-linecap="square" stroke-linejoin="miter" stroke-miterlimit="4" stroke-opacity="1" fill="none" fill-rule="nonzero" transform="matrix(1 0 0 1.00092 1993 1147)"/><path d="M1347.37 646.737 1455.16 646.737" stroke="#000000" stroke-width="10.7789" stroke-linecap="square" stroke-linejoin="miter" stroke-miterlimit="4" stroke-opacity="1" fill="none" fill-rule="nonzero" transform="matrix(1 0 0 1.00092 1993 1147)"/><path d="M1131.79 603.621 1347.37 603.621 1347.37 689.853 1131.79 689.853Z" stroke="#000000" stroke-width="10.7789" stroke-linecap="butt" stroke-linejoin="miter" stroke-miterlimit="4" stroke-opacity="1" fill="none" fill-rule="nonzero" transform="matrix(1 0 0 1.00092 1993 1147)"/><path d="M1088.67 323.368C1088.67 329.321 1083.85 334.147 1077.89 334.147 1071.94 334.147 1067.12 329.321 1067.12 323.368 1067.12 317.415 1071.94 312.589 1077.89 312.589 1083.85 312.589 1088.67 317.415 1088.67 323.368Z" stroke="#000000" stroke-width="10.7789" stroke-linecap="butt" stroke-linejoin="miter" stroke-miterlimit="4" stroke-opacity="1" fill="#000000" fill-rule="nonzero" fill-opacity="1" transform="matrix(1 0 0 1.00092 1993 1147)"/><path d="M1034.78 646.737C1034.78 652.69 1029.95 657.516 1024 657.516 1018.05 657.516 1013.22 652.69 1013.22 646.737 1013.22 640.784 1018.05 635.958 1024 635.958 1029.95 635.958 1034.78 640.784 1034.78 646.737Z" stroke="#000000" stroke-width="10.7789" stroke-linecap="butt" stroke-linejoin="miter" stroke-miterlimit="4" stroke-opacity="1" fill="#000000" fill-rule="nonzero" fill-opacity="1" transform="matrix(1 0 0 1.00092 1993 1147)"/></g></g></g><text fill="#000000" fill-opacity="1" font-family="Franklin Gothic Book,Franklin Gothic Book_MSFontService,sans-serif" font-style="normal" font-variant="normal" font-weight="400" font-stretch="normal" font-size="55" text-anchor="start" direction="ltr" writing-mode="lr-tb" unicode-bidi="normal" text-decoration="none" transform="matrix(1 0 0 1 3105.58 1451)">Freq Switch</text><text fill="#000000" fill-opacity="1" font-family="Franklin Gothic Book,Franklin Gothic Book_MSFontService,sans-serif" font-style="normal" font-variant="normal" font-weight="400" font-stretch="normal" font-size="55" text-anchor="start" direction="ltr" writing-mode="lr-tb" unicode-bidi="normal" text-decoration="none" transform="matrix(1 0 0 1 3081.49 1662)">Colour Switch</text><text fill="#000000" fill-opacity="1" font-family="Franklin Gothic Book,Franklin Gothic Book_MSFontService,sans-serif" font-style="normal" font-variant="normal" font-weight="400" font-stretch="normal" font-size="55" text-anchor="start" direction="ltr" writing-mode="lr-tb" unicode-bidi="normal" text-decoration="none" transform="matrix(1 0 0 1 2568.64 1762)">Red LED</text><text fill="#000000" fill-opacity="1" font-family="Franklin Gothic Book,Franklin Gothic Book_MSFontService,sans-serif" font-style="normal" font-variant="normal" font-weight="400" font-stretch="normal" font-size="55" text-anchor="start" direction="ltr" writing-mode="lr-tb" unicode-bidi="normal" text-decoration="none" transform="matrix(1 0 0 1 2518.52 1975)">Green LED</text></g></g></svg>